<?xml version="1.0" encoding="UTF-8" standalone="no"?>
<!-- Created with Inkscape (http://www.inkscape.org/) -->

<svg
   width="36px"
   height="36px"
   viewBox="0 0 512 512"
   fill="white"
   version="1.1"
   id="svg1"
   xmlns="http://www.w3.org/2000/svg"
   xmlns:svg="http://www.w3.org/2000/svg">
  <defs
     id="defs1" />
  <g
     id="layer1">
    <path
       d="M 232.63752,27.25471 50.010352,419.18733 c -15.242694,32.71205 1.435421,54.253 35.434419,42.26034 59.727899,-21.06818 140.546249,-64.75471 141.859969,-147.12592 3.96477,-40.30062 -89.95582,3.89627 -89.95582,3.89627 l 0.58194,-16.44607 98.93244,-84.48704 c 0.11938,-44.74837 7.9534,-85.87116 19.1367,-85.64076 11.18328,-0.23874 20.3695,40.89239 20.21998,85.64076 l 97.21052,83.74575 0.20891,17.1799 c 0,0 -92.87437,-44.22225 -88.90975,-3.89657 0.41901,83.15671 84.12223,126.88897 145.11491,147.72616 33.78525,11.54221 50.1803,-9.82562 34.93877,-42.1489 L 279.59113,27.147525 a 25.928113,25.928113 0 0 0 -46.95361,0.107182 z"
       style="stroke-width:213.27;stroke-linejoin:round;"
       id="path4" />
  </g>
</svg>
