<?xml version="1.0" encoding="UTF-8" standalone="no"?>
<!-- Created with Inkscape (http://www.inkscape.org/) -->

<svg
   width="512mm"
   height="512mm"
   viewBox="0 0 512 512"
   version="1.1"
   id="svg1"
   xml:space="preserve"
   inkscape:export-filename="logo.png"
   inkscape:export-xdpi="25.4"
   inkscape:export-ydpi="25.4"
   xmlns:inkscape="http://www.inkscape.org/namespaces/inkscape"
   xmlns:sodipodi="http://sodipodi.sourceforge.net/DTD/sodipodi-0.dtd"
   xmlns="http://www.w3.org/2000/svg"
   xmlns:svg="http://www.w3.org/2000/svg"><sodipodi:namedview
     id="namedview1"
     pagecolor="#ffffff"
     bordercolor="#000000"
     borderopacity="0.25"
     inkscape:showpageshadow="2"
     inkscape:pageopacity="0.0"
     inkscape:pagecheckerboard="0"
     inkscape:deskcolor="#d1d1d1"
     inkscape:document-units="mm"><inkscape:page
       x="0"
       y="0"
       width="512"
       height="512"
       id="page2"
       margin="0"
       bleed="0" /></sodipodi:namedview><defs
     id="defs1" /><g
     inkscape:label="Layer 1"
     inkscape:groupmode="layer"
     id="layer1"><path
       style="opacity:1;fill:#000000;fill-opacity:1;stroke-width:3.15698;stroke-linejoin:round"
       d="m 447.4291,301.65888 c 83.25736,45.13756 87.39142,91.2181 4.30028,108.87516 -108.95209,23.15258 -147.85488,-27.06896 -196.44441,-59.03107 61.54706,-7.36113 120.70681,-5.88911 192.14413,-49.84409 z"
       id="path1"
       sodipodi:nodetypes="cscc" /><path
       style="opacity:1;fill:#000000;fill-opacity:1;stroke-width:3.15698;stroke-linejoin:round"
       d="m 28.26595,304.08698 c 125.17595,12.47993 288.11661,27.97773 411.33114,-34.27761 l 0.55289,15.20379 C 313.71083,361.02862 76.094396,326.15091 31.030271,319.56718 Z"
       id="path2"
       sodipodi:nodetypes="ccccc" /><path
       style="opacity:1;fill:#000000;fill-opacity:1;stroke-width:3.15698;stroke-linejoin:round"
       d="m 440.70283,217.84012 c 3.53498,-18.43034 8.4619,-33.23643 23.77314,-62.47368 C 484.85188,116.45808 462.2707,74.637207 421.35257,70.778198 331.0762,62.264185 264.80426,176.22064 23.843033,225.02739 c -26.0158692,5.26949 -37.736857,21.84127 1.658598,48.65207 141.436349,-4.99635 283.799929,-7.83539 415.201199,-55.83934 z"
       id="path3"
       sodipodi:nodetypes="cssscc" /></g></svg>
